<svg width="64" height="57" fill="none" xmlns="http://www.w3.org/2000/svg"><g clip-path="url(#a)"><path d="M32 0 13.96 1.87 0 20.27l32 36.6 32-36.6-13.96-18.4L32 0Z" fill="#FDB300"/><path d="m0 20.28 32 36.59-19.04-36.6H0ZM51.04 20.28 32 56.87l32-36.6H51.04Z" fill="#EB6C00"/><path d="M12.96 20.28 32 56.87l19.04-36.6H12.96Z" fill="#FDAD00"/><path d="m13.96 1.87-1 18.4L32 0 13.96 1.87ZM51.04 20.28l-1-18.4L32 0l19.04 20.28Z" fill="#FDD231"/><path d="M51.04 20.28H64L50.04 1.88l1 18.4ZM0 20.28h12.96l1-18.4L0 20.27Z" fill="#FDAD00"/><path d="M32 0 12.96 20.28h38.08L32 0Z" fill="#FEEEB7"/></g><defs><clipPath id="a"><path fill="#fff" d="M0 0h64v56.95H0z"/></clipPath></defs></svg>