<svg width="30" height="30" fill="none" xmlns="http://www.w3.org/2000/svg"><path d="M17.5 16.25h-1.25V15a1.25 1.25 0 0 0-2.5 0v1.25H12.5a1.25 1.25 0 0 0 0 2.5h1.25V20a1.25 1.25 0 0 0 2.5 0v-1.25h1.25a1.25 1.25 0 0 0 0-2.5Z" fill="#fff" fill-opacity=".38"/><path d="M24.38 8.81h-8.75l-3.3-3.97a1.25 1.25 0 0 0-.96-.47H5.63A3.09 3.09 0 0 0 2.5 7.41V22.6a3.09 3.09 0 0 0 3.13 3.04h18.75a3.09 3.09 0 0 0 3.12-3.04V11.85a3.09 3.09 0 0 0-3.13-3.04ZM25 22.56a.57.57 0 0 1-.63.54H5.63a.58.58 0 0 1-.62-.54V7.41a.58.58 0 0 1 .63-.54h5.16l3.25 3.98a1.25 1.25 0 0 0 .96.46h9.38a.58.58 0 0 1 .62.54v10.71Z" fill="#fff" fill-opacity=".38"/></svg>