<svg width="64" height="64" fill="none" xmlns="http://www.w3.org/2000/svg"><g clip-path="url(#a)"><path d="M36.2 13.9 33.2 4.75 10.88 0 0 12.34l34.01 17.37 2.2-15.81Z" fill="url(#b)"/><path d="m25.6 37.85-.64-19.02L0 12.34l6.13 36.67 19.47-.19V37.85Z" fill="url(#c)"/><path d="m20.2 37.49 1.2-15.09L39.5 3.84l16.18 2.93L64 27.52l-8.69 8.6-14.17-2.3-8.77 9.24L20.2 37.5Z" fill="url(#d)"/><path d="M39.5 3.84 13.53 26.88l5.03 29.62L40.14 64 64 49.74 39.5 3.84Z" fill="url(#e)"/><path d="M12.25 12.25h39.5v39.5h-39.5v-39.5Z" fill="#000"/><path d="M16 44.34h14.81v2.47H16v-2.47ZM15.82 17.37h6.67c3.93 0 6.31 2.29 6.31 5.67v.1c0 3.83-2.93 5.75-6.67 5.75h-2.75v4.94h-3.56V17.37Zm6.49 8.23c1.83 0 2.83-1.1 2.83-2.47v-.09c0-1.65-1.1-2.47-2.92-2.47h-2.75v5.03h2.84ZM29.71 31.45l2.1-2.56c1.47 1.19 3.02 2.01 4.94 2.01 1.47 0 2.38-.55 2.38-1.55v-.1c0-.9-.55-1.36-3.29-2.1-3.3-.82-5.49-1.73-5.49-5.02v-.1c0-3.01 2.38-4.93 5.76-4.93a9.4 9.4 0 0 1 6.13 2.1l-1.92 2.74c-1.46-1-2.93-1.64-4.3-1.64-1.37 0-2.1.64-2.1 1.46v.1c0 1.09.73 1.45 3.57 2.19 3.29.91 5.2 2.1 5.2 4.93v.1c0 3.29-2.46 5.11-6.03 5.11-2.47-.09-4.93-1-6.95-2.74Z" fill="#fff"/></g><defs><linearGradient id="b" x1=".51" y1="42.83" x2="27.38" y2="7.34" gradientUnits="userSpaceOnUse"><stop offset=".02" stop-color="#765AF8"/><stop offset=".38" stop-color="#B345F1"/><stop offset=".76" stop-color="#FA3293"/><stop offset=".94" stop-color="#FF318C"/></linearGradient><linearGradient id="c" x1="2.5" y1="44.23" x2="29.32" y2="8.8" gradientUnits="userSpaceOnUse"><stop offset=".02" stop-color="#765AF8"/><stop offset=".38" stop-color="#B345F1"/><stop offset=".76" stop-color="#FA3293"/><stop offset=".94" stop-color="#FF318C"/></linearGradient><linearGradient id="d" x1="46.5" y1="42.43" x2="31.34" y2="6.44" gradientUnits="userSpaceOnUse"><stop offset=".18" stop-color="#765AF8"/><stop offset=".24" stop-color="#8655F6"/><stop offset=".34" stop-color="#9F4CF3"/><stop offset=".44" stop-color="#AE47F2"/><stop offset=".52" stop-color="#B345F1"/></linearGradient><linearGradient id="e" x1="57.84" y1="52.42" x2="22.58" y2="25.16" gradientUnits="userSpaceOnUse"><stop offset=".02" stop-color="#765AF8"/><stop offset=".38" stop-color="#B345F1"/></linearGradient><clipPath id="a"><path fill="#fff" d="M0 0h64v64H0z"/></clipPath></defs></svg>