<svg width="101" height="97" fill="none" xmlns="http://www.w3.org/2000/svg"><path d="m43.5 6.6 5.4 8c-2.5 1.6-5.4 4-9 7.4a97.8 97.8 0 0 0-9.6 12c-3 4.4-5 9.1-6.2 14 2.1-.1 4.2.1 6 .8 3.5 1.2 6 3.4 7.6 6.6 1.7 3 2 6.6.5 10.5a16.4 16.4 0 0 1-7.8 9.7c-3.6 1.7-7.5 1.9-11.6.5-6.1-2.2-10-5.9-11.7-11.2A30 30 0 0 1 8.3 47c1.5-4.2 3.9-9 7.3-14.1 3.5-5.2 7.7-10 12.5-14.7 4.8-4.7 10-8.6 15.4-11.6Zm43.5 15 5.4 8c-2.5 1.7-5.5 4.1-9 7.5a97.8 97.8 0 0 0-9.7 12c-3 4.4-5 9.1-6.2 14 2.2-.1 4.2.1 6.1.8 3.5 1.2 6 3.4 7.5 6.6 1.8 3 2 6.6.6 10.5a16.4 16.4 0 0 1-7.9 9.7c-3.6 1.7-7.4 1.9-11.5.5C56 89 52.3 85.3 50.5 80A30 30 0 0 1 51.7 62c1.5-4.2 4-9 7.3-14.1 3.6-5.2 7.7-10 12.5-14.7 4.8-4.7 10-8.6 15.5-11.6Z" fill="url(#a)"/><defs><linearGradient id="a" x1="66.9" y1="2.1" x2="-252" y2="320.5" gradientUnits="userSpaceOnUse"><stop stop-color="#FCFCFC" stop-opacity="0"/><stop offset="1" stop-color="#fff" stop-opacity=".5"/></linearGradient></defs></svg>