<svg width="36" height="36" fill="none" xmlns="http://www.w3.org/2000/svg"><path d="M18 11.07a6.94 6.94 0 1 0 0 13.87 6.94 6.94 0 0 0 0-13.87Zm0 11.44a4.5 4.5 0 1 1 0-9.02 4.5 4.5 0 0 1 0 9.02ZM25.2 12.43a1.62 1.62 0 1 0 0-3.24 1.62 1.62 0 0 0 0 3.24Z" fill="#fff" fill-opacity=".78"/><path d="M30.8 9.17a6.9 6.9 0 0 0-3.95-3.95 9.9 9.9 0 0 0-3.28-.63c-1.44-.06-1.9-.08-5.56-.08-3.67 0-4.14 0-5.57.08a9.83 9.83 0 0 0-3.28.63 6.9 6.9 0 0 0-3.94 3.95 9.88 9.88 0 0 0-.63 3.28c-.07 1.44-.09 1.9-.09 5.56 0 3.66 0 4.13.09 5.57a9.9 9.9 0 0 0 .63 3.28 6.91 6.91 0 0 0 3.95 3.94c1.04.41 2.15.64 3.27.68 1.45.06 1.9.08 5.57.08 3.66 0 4.13 0 5.56-.08a9.92 9.92 0 0 0 3.28-.63 6.92 6.92 0 0 0 3.95-3.95c.4-1.05.6-2.16.63-3.28.07-1.44.09-1.9.09-5.56 0-3.67 0-4.13-.09-5.57a9.87 9.87 0 0 0-.63-3.32Zm-1.83 14.3a7.57 7.57 0 0 1-.46 2.53 4.48 4.48 0 0 1-2.57 2.56c-.8.3-1.65.46-2.5.47a91.3 91.3 0 0 1-5.49.08c-3.65 0-4.03 0-5.48-.08a7.44 7.44 0 0 1-2.5-.47A4.48 4.48 0 0 1 7.39 26c-.3-.8-.46-1.65-.47-2.5A93.86 93.86 0 0 1 6.84 18c0-3.65 0-4.03.08-5.48.01-.86.17-1.72.47-2.53a4.48 4.48 0 0 1 2.58-2.57c.8-.3 1.64-.45 2.5-.47 1.43-.06 1.83-.08 5.48-.08 3.66 0 4.03 0 5.48.08.86.01 1.7.17 2.5.47A4.49 4.49 0 0 1 28.52 10c.3.8.45 1.65.46 2.5.07 1.43.08 1.83.08 5.48 0 3.66 0 4.05-.06 5.49h-.02Z" fill="#fff" fill-opacity=".78"/></svg>