<svg width="36" height="36" fill="none" xmlns="http://www.w3.org/2000/svg"><path d="M29.45 12c.02.26.02.52.02.78 0 7.99-6.08 17.2-17.2 17.2-3.41 0-6.6-1-9.27-2.72a12.1 12.1 0 0 0 8.96-2.5 6.05 6.05 0 0 1-5.65-4.2 6.43 6.43 0 0 0 2.73-.11 6.04 6.04 0 0 1-4.84-5.93v-.07c.8.44 1.74.72 2.73.76a6.03 6.03 0 0 1-1.87-8.08 17.19 17.19 0 0 0 12.46 6.33 6.04 6.04 0 0 1 10.3-5.52c1.35-.27 2.65-.76 3.84-1.46A6.03 6.03 0 0 1 29 9.8a12.1 12.1 0 0 0 3.48-.94A12.97 12.97 0 0 1 29.45 12Z" fill="#fff" fill-opacity=".78"/></svg>