<svg width="56" height="44" fill="none" xmlns="http://www.w3.org/2000/svg"><path fill-rule="evenodd" clip-rule="evenodd" d="M8.63 30.34 5.7 31.39l-.16 8.57L15.7 36.3c-3.48-1.14-6.02-3.17-7.06-5.97Z" fill="#FDBD39"/><path fill-rule="evenodd" clip-rule="evenodd" d="M10.16 21.28 0 24.93l5.7 6.46 2.93-1.05c-1.03-2.8-.4-5.97 1.53-9.06Z" fill="#F69833"/><path fill-rule="evenodd" clip-rule="evenodd" d="M27.27 8.91C14.33 13.56 5.98 23.15 8.63 30.34L55.5 13.5c-2.65-7.19-15.29-9.24-28.23-4.6Z" fill="#FECF33"/><path fill-rule="evenodd" clip-rule="evenodd" d="M36.87 34.93c12.94-4.65 21.3-14.2 18.63-21.42L8.63 30.34c2.67 7.22 15.3 9.23 28.24 4.59Z" fill="#EE6723"/><path fill-rule="evenodd" clip-rule="evenodd" d="M55.5 13.5 8.63 30.35c.92 2.48 4.42 3.71 9.33 3.71 4.79 0 10.92-1.16 17.3-3.46 12.95-4.65 22.06-12.17 20.24-17.08Z" fill="#F69833"/><path fill-rule="evenodd" clip-rule="evenodd" d="M46.18 9.8c-4.8 0-10.92 1.16-17.31 3.45C15.93 17.9 6.82 25.42 8.63 30.34L55.5 13.5c-.91-2.5-4.41-3.72-9.32-3.72Z" fill="#FDBD39"/><path fill-rule="evenodd" clip-rule="evenodd" d="M43.59 40.4c-1.38 0-3.42-1.22-6.05-3.63a77.13 77.13 0 0 1-10.05-11.78 76.6 76.6 0 0 1-7.79-13.35c-1.8-4.21-2.06-6.8-.76-7.7.28-.2.63-.3 1.02-.3 1.05 0 3.1.78 6.9 4.45l.1.08-.02.12-.07.8-.04.51-.38-.37c-4.1-4.05-5.9-4.5-6.48-4.5-.17 0-.3.04-.4.1-.56.4-.6 2.3 1.16 6.38a75.48 75.48 0 0 0 7.67 13.15 76 76 0 0 0 9.9 11.6c3.3 3.03 4.78 3.36 5.27 3.36a.7.7 0 0 0 .4-.1c.6-.42.6-2.45-1.35-6.85l-.1-.2.2-.1.57-.32.23-.13.11.25c1.38 3.11 2.68 7.07.98 8.24-.28.2-.63.3-1.02.3Zm0-.47v.24-.24Z" fill="#EE6723"/><path fill-rule="evenodd" clip-rule="evenodd" d="m37.18 34.8-.02.24c-.33 3.98-1.19 8.76-3.43 8.95l-.14.01c-1.53 0-2.97-2.15-4.3-6.39a75.92 75.92 0 0 1-2.73-15.16c-.5-5.77-.5-11.23.03-15.4.57-4.54 1.66-6.9 3.23-7.04l.15-.01c1.1 0 2.77 1.23 4.48 6.97l-1.11.21a22.2 22.2 0 0 0-1.81-4.55c-.57-.99-1.13-1.53-1.57-1.53h-.04c-.68.06-1.68 1.69-2.23 6.09a74.73 74.73 0 0 0-.02 15.16c.5 5.7 1.46 11 2.69 14.94a20.34 20.34 0 0 0 1.74 4.2c.55.91 1.07 1.41 1.49 1.41a.5.5 0 0 0 .04 0c.65-.05 1.89-1.75 2.4-7.72l1.15-.38Z" fill="#EE6723"/></svg>