<svg width="157" height="51" fill="none" xmlns="http://www.w3.org/2000/svg"><g clip-path="url(#a)" fill="#fff" fill-opacity=".2"><path d="m152.11 31.17 4.36 2.87a12.75 12.75 0 0 1-10.65 5.6 12.42 12.42 0 0 1-12.66-12.63c0-7.53 5.46-12.63 12.05-12.63 6.63 0 9.88 5.21 10.93 8.03l.57 1.44-17.07 7a6.48 6.48 0 0 0 6.19 3.82c2.86 0 4.85-1.4 6.28-3.5Zm-13.39-4.56 11.4-4.69c-.63-1.57-2.5-2.68-4.73-2.68-2.85 0-6.8 2.5-6.67 7.37ZM124.93 1.5h5.5v36.99h-5.5v-37ZM116.25 15.36h5.31v22.47c0 9.32-5.55 13.16-12.13 13.16-6.18 0-9.9-4.13-11.3-7.47l4.87-2c.88 2.05 3 4.5 6.44 4.5 4.22 0 6.81-2.6 6.81-7.44v-1.81h-.19a8.8 8.8 0 0 1-6.72 2.87c-6.38 0-12.23-5.5-12.23-12.6 0-7.12 5.85-12.68 12.23-12.68a8.94 8.94 0 0 1 6.72 2.81h.2v-1.81Zm.39 11.69c0-4.47-3-7.72-6.82-7.72-3.86 0-7.1 3.25-7.1 7.72 0 4.4 3.24 7.6 7.1 7.6 3.82.02 6.82-3.2 6.82-7.6ZM66.91 26.95c0 7.28-5.73 12.63-12.76 12.63-7.03 0-12.76-5.37-12.76-12.63 0-7.32 5.73-12.65 12.76-12.65 7.03 0 12.76 5.33 12.76 12.65Zm-5.57 0c0-4.54-3.33-7.66-7.19-7.66-3.86 0-7.18 3.12-7.18 7.66 0 4.5 3.32 7.66 7.18 7.66s7.19-3.16 7.19-7.66ZM94.78 27c0 7.29-5.73 12.64-12.76 12.64-7.03 0-12.76-5.35-12.76-12.63 0-7.32 5.73-12.63 12.76-12.63 7.03 0 12.76 5.29 12.76 12.63Zm-5.6 0c0-4.53-3.32-7.65-7.18-7.65-3.85 0-7.18 3.12-7.18 7.66 0 4.5 3.33 7.66 7.18 7.66 3.88 0 7.19-3.18 7.19-7.66ZM20.42 34.1c-8 0-14.27-6.4-14.27-14.32A14.2 14.2 0 0 1 20.42 5.47c4.32 0 7.47 1.68 9.8 3.84l3.84-3.8A19.04 19.04 0 0 0 20.42.08C9.45.08.22 8.93.22 19.78c0 10.86 9.23 19.7 20.2 19.7 5.92 0 10.4-1.92 13.89-5.51 3.59-3.56 4.7-8.55 4.7-12.6 0-1.26-.16-2.57-.33-3.53H20.42v5.25h13c-.37 3.3-1.43 5.54-2.97 7.08-1.87 1.87-4.84 3.93-10.03 3.93Z"/></g><defs><clipPath id="a"><path fill="#fff" d="M0 0h157v51H0z"/></clipPath></defs></svg>