<svg width="140" height="38" fill="none" xmlns="http://www.w3.org/2000/svg"><rect width="38" height="38" rx="8" fill="#FF6E30"/><path fill-rule="evenodd" clip-rule="evenodd" d="M19.96 12.44c-.33 0-.65.04-.96.11.2-1.79.91-3.43 2-4.76a8.67 8.67 0 0 1 7.63 8.61v6.33a9.17 9.17 0 0 1-8.53-4.69h3.83V16.4c0-2.19-1.77-3.96-3.97-3.96Z" fill="#fff"/><path fill-rule="evenodd" clip-rule="evenodd" d="M9.26 16.95a9.64 9.64 0 0 1 10.26-9.62 10.1 10.1 0 0 0-2.6 7.38 2.99 2.99 0 0 0-1.01 2.24v.67h5.98-4.37a10.15 10.15 0 0 0 11.02 6.54v4.1H21.9v-4h-5.98v4H9.26V16.95Z" fill="#fff"/><path d="M50.73 20.86c0-1.23.24-2.32.72-3.28a5.5 5.5 0 0 1 2-2.2c.85-.5 1.8-.77 2.84-.77a4.9 4.9 0 0 1 4.03 1.94v-1.74h3.1V27h-3.1v-1.78c-.4.57-.95 1.05-1.65 1.43-.7.36-1.5.55-2.4.55a5.23 5.23 0 0 1-2.82-.8 5.67 5.67 0 0 1-2-2.22 7.33 7.33 0 0 1-.72-3.32Zm9.59.05c0-.75-.15-1.39-.44-1.92-.3-.54-.7-.95-1.19-1.23a3.12 3.12 0 0 0-4.38 1.21c-.3.53-.44 1.16-.44 1.9 0 .73.15 1.37.44 1.93.31.54.7.96 1.19 1.25.5.3 1.03.44 1.58.44.58 0 1.11-.14 1.61-.42.5-.29.9-.7 1.19-1.23.3-.54.44-1.19.44-1.93Zm12.86-6.27c1.45 0 2.63.46 3.52 1.38.9.91 1.34 2.19 1.34 3.83V27h-3.08v-6.73c0-.97-.24-1.71-.72-2.22a2.55 2.55 0 0 0-1.98-.8c-.85 0-1.53.27-2.03.8-.48.5-.72 1.25-.72 2.22V27h-3.08V14.81h3.08v1.52c.4-.53.93-.94 1.56-1.23.65-.31 1.35-.46 2.11-.46Zm11.38 2.7v5.9c0 .4.1.7.29.9.2.18.54.26 1 .26h1.44V27h-1.94c-2.6 0-3.9-1.26-3.9-3.78v-5.88h-1.44v-2.53h1.45V11.8h3.1v3.01h2.73v2.53h-2.73ZM94.9 27.2a6.5 6.5 0 0 1-3.16-.77 5.78 5.78 0 0 1-2.23-2.22 6.7 6.7 0 0 1-.79-3.3c0-1.25.27-2.35.82-3.3a5.73 5.73 0 0 1 2.26-2.2c.96-.53 2.02-.8 3.2-.8 1.17 0 2.23.27 3.18.8.96.5 1.7 1.24 2.25 2.2.55.95.83 2.05.83 3.3 0 1.24-.28 2.34-.86 3.3a5.84 5.84 0 0 1-2.28 2.22c-.96.51-2.03.77-3.22.77Zm0-2.69a3.01 3.01 0 0 0 2.75-1.63c.3-.54.44-1.2.44-1.97 0-1.16-.3-2.05-.92-2.67a2.95 2.95 0 0 0-2.22-.94c-.88 0-1.62.31-2.22.94-.59.62-.88 1.5-.88 2.67 0 1.15.28 2.05.85 2.68.6.62 1.32.92 2.2.92Zm14.03 2.69a6.49 6.49 0 0 1-3.16-.77 5.77 5.77 0 0 1-2.23-2.22 6.7 6.7 0 0 1-.79-3.3c0-1.25.27-2.35.82-3.3a5.73 5.73 0 0 1 2.26-2.2c.95-.53 2.02-.8 3.2-.8 1.16 0 2.23.27 3.18.8.95.5 1.7 1.24 2.25 2.2.55.95.83 2.05.83 3.3 0 1.24-.28 2.34-.86 3.3a5.85 5.85 0 0 1-2.28 2.22c-.96.51-2.03.77-3.22.77Zm0-2.69a3.02 3.02 0 0 0 2.75-1.63c.3-.54.44-1.2.44-1.97 0-1.16-.3-2.05-.92-2.67a2.95 2.95 0 0 0-2.22-.94c-.88 0-1.62.31-2.22.94-.6.62-.88 1.5-.88 2.67 0 1.15.28 2.05.85 2.68.59.62 1.32.92 2.2.92Zm11.7-13.79V27h-3.08V10.72h3.08Zm7.7 16.48c-.99 0-1.88-.18-2.68-.53a4.92 4.92 0 0 1-1.89-1.47c-.45-.62-.7-1.3-.75-2.05h3.1c.06.47.3.86.69 1.17.4.3.91.46 1.52.46.58 0 1.04-.12 1.36-.35.34-.24.5-.54.5-.9 0-.4-.2-.7-.61-.89-.4-.2-1.03-.42-1.91-.66-.91-.22-1.66-.44-2.25-.68a3.99 3.99 0 0 1-1.5-1.08 2.93 2.93 0 0 1-.61-1.95c0-.68.2-1.3.57-1.85a4 4 0 0 1 1.67-1.32c.74-.32 1.6-.49 2.58-.49a5.2 5.2 0 0 1 3.47 1.1 4 4 0 0 1 1.43 2.93h-2.94a1.55 1.55 0 0 0-.62-1.14c-.35-.3-.83-.44-1.43-.44-.56 0-.99.1-1.3.3-.3.2-.44.5-.44.86 0 .41.2.73.62.95.4.2 1.05.42 1.91.64.88.22 1.6.44 2.18.68.57.23 1.06.6 1.47 1.1.43.48.65 1.13.66 1.93 0 .7-.2 1.34-.59 1.9-.38.55-.94 1-1.67 1.32-.72.3-1.56.46-2.53.46Zm8.7-.05c-.56 0-1.02-.16-1.39-.5a1.76 1.76 0 0 1-.53-1.3c0-.51.18-.94.53-1.28.37-.35.83-.52 1.39-.52a1.82 1.82 0 0 1 1.34 3.1c-.35.34-.8.5-1.34.5Z" fill="#fff" fill-opacity=".9"/></svg>