<svg width="64" height="64" fill="none" xmlns="http://www.w3.org/2000/svg"><g opacity=".78"><path d="M42.67 42.67a10.67 10.67 0 1 0 0-21.34 10.67 10.67 0 0 0 0 21.34Z" fill="#19BCFE"/><path fill-rule="evenodd" clip-rule="evenodd" d="M21.33 64A10.67 10.67 0 0 0 32 53.33V42.67H21.33a10.67 10.67 0 1 0 0 21.33Z" fill="#09CF83"/><path fill-rule="evenodd" clip-rule="evenodd" d="M21.33 42.67H32V21.33H21.33a10.67 10.67 0 1 0 0 21.34Z" fill="#A259FF"/><path fill-rule="evenodd" clip-rule="evenodd" d="M21.33 21.33H32V0H21.33a10.67 10.67 0 1 0 0 21.33Z" fill="#F24E1E"/><path fill-rule="evenodd" clip-rule="evenodd" d="M42.67 21.33H32V0h10.67a10.67 10.67 0 0 1 0 21.33Z" fill="#FF7262"/></g></svg>