<svg width="65" height="64" fill="none" xmlns="http://www.w3.org/2000/svg"><g opacity=".78" clip-path="url(#a)"><path d="M0 4a4 4 0 0 1 4-4h57a4 4 0 0 1 4 4v55.82a4 4 0 0 1-4 4H4a4 4 0 0 1-4-4V4Z" fill="#F06"/><path d="M22.12 20.54a3.7 3.7 0 0 0 3.68-3.7 3.7 3.7 0 0 0-3.75-3.64 3.7 3.7 0 0 0-3.72 3.67 3.62 3.62 0 0 0 1.11 2.6 3.76 3.76 0 0 0 2.68 1.07ZM14.26 40.18c-.22.9-.33 1.83-.34 2.75 0 3.23 1.79 5.38 5.58 5.38 3.14 0 5.7-1.84 7.52-4.8l-1.12 4.42h6.24l3.57-14.04c.9-3.56 2.62-5.4 5.24-5.4 2.06 0 3.35 1.25 3.35 3.33 0 .67-.09 1.33-.28 1.97l-1.84 6.46a9.5 9.5 0 0 0-.39 2.74c0 3.06 1.84 5.3 5.68 5.3 3.3 0 5.91-2.07 7.36-7.05l-2.45-.93c-1.23 3.33-2.29 3.94-3.12 3.94-.84 0-1.29-.55-1.29-1.64.03-.58.12-1.15.28-1.7l1.79-6.3c.4-1.29.6-2.63.61-3.98 0-4.71-2.9-7.17-6.4-7.17-3.3 0-6.64 2.91-8.31 5.98l1.22-5.5h-9.53l-1.34 4.85h4.47L28 39.57c-2.16 4.7-6.12 4.78-6.62 4.67-.81-.18-1.33-.48-1.33-1.53.02-.84.15-1.69.39-2.5l4.18-16.29H14.04l-1.34 4.85h4.4l-2.84 11.4Z" fill="#fff"/></g><defs><clipPath id="a"><path fill="#fff" d="M0 0h65v63.82H0z"/></clipPath></defs></svg>