<svg width="64" height="64" fill="none" xmlns="http://www.w3.org/2000/svg"><g opacity=".78"><path fill-rule="evenodd" clip-rule="evenodd" d="m11.43 58.44-6.88-8.57A11.5 11.5 0 0 1 2 42.66V11.63c0-3.9 3.13-7.15 7.16-7.43l31.9-2.18a10.4 10.4 0 0 1 6.53 1.75l11.2 7.58C60.8 12.7 62 14.92 62 17.29v35.28c0 3.82-3.07 6.99-7.02 7.23l-35.41 2.18a9.67 9.67 0 0 1-8.14-3.54Z" fill="#fff"/><path d="M22.5 27.16v-.4c0-1.04.82-1.9 1.88-1.96l7.75-.52 10.7 15.77V26.2l-2.75-.37v-.2c0-1.03.84-1.9 1.92-1.95l7.04-.36v1.01c0 .48-.35.89-.84.97l-1.7.29V48l-2.12.74a4.13 4.13 0 0 1-4.77-1.58L29.2 31.47v14.98l3.2.6-.04.3a2 2 0 0 1-1.92 1.68l-7.95.36c-.1-1 .64-1.9 1.67-2l1.05-.12V27.31l-2.72-.15Z" fill="#000"/><path fill-rule="evenodd" clip-rule="evenodd" d="M41.35 5.93 9.45 8.11a3.58 3.58 0 0 0-3.4 3.52v31.03c0 1.74.6 3.43 1.7 4.8l6.89 8.57a5.55 5.55 0 0 0 4.67 2.04l35.4-2.18a3.38 3.38 0 0 0 3.23-3.32V17.29a3.3 3.3 0 0 0-1.47-2.73l-11.2-7.58a6.24 6.24 0 0 0-3.92-1.05Zm-30.32 6.18c-.44-.32-.23-1 .32-1.05L41.56 8.9c.97-.06 1.92.2 2.7.75l6.06 4.3c.23.16.13.51-.16.53l-32 1.74a4.15 4.15 0 0 1-2.69-.8l-4.44-3.3Zm5.64 9.55c0-1.04.84-1.9 1.91-1.95l33.83-1.85a1.8 1.8 0 0 1 1.92 1.76v30.55c0 1.04-.83 1.9-1.9 1.96l-33.62 1.9a2 2 0 0 1-2.14-1.95V21.66Z" fill="#000"/></g></svg>