<svg width="65" height="64" fill="none" xmlns="http://www.w3.org/2000/svg"><g opacity=".78" clip-path="url(#a)" fill-rule="evenodd" clip-rule="evenodd"><path d="M13.67 40.22a6.58 6.58 0 0 1-2 4.73 6.81 6.81 0 0 1-4.81 1.95 6.91 6.91 0 0 1-4.81-1.95 6.67 6.67 0 0 1-2-4.73 6.58 6.58 0 0 1 2-4.73 6.81 6.81 0 0 1 4.81-1.96h6.81v6.69Zm3.4 0a6.58 6.58 0 0 1 2-4.73 6.81 6.81 0 0 1 4.81-1.96 6.91 6.91 0 0 1 4.82 1.96 6.67 6.67 0 0 1 2 4.73v16.72a6.57 6.57 0 0 1-2 4.72 6.81 6.81 0 0 1-4.82 1.96 6.91 6.91 0 0 1-4.81-1.96 6.67 6.67 0 0 1-2-4.72V40.22Z" fill="#E01E5A"/><path d="M23.88 13.37a6.91 6.91 0 0 1-4.81-1.95 6.67 6.67 0 0 1-2-4.73 6.58 6.58 0 0 1 2-4.73A6.81 6.81 0 0 1 23.88 0a6.91 6.91 0 0 1 4.82 1.96 6.67 6.67 0 0 1 2 4.73v6.69h-6.81Zm0 3.4a6.91 6.91 0 0 1 4.82 1.95 6.67 6.67 0 0 1 2 4.73 6.57 6.57 0 0 1-2 4.73 6.81 6.81 0 0 1-4.82 1.96H6.81a6.91 6.91 0 0 1-4.82-1.96A6.67 6.67 0 0 1 0 23.45a6.58 6.58 0 0 1 2-4.72 6.81 6.81 0 0 1 4.8-1.96H23.9Z" fill="#36C5F0"/><path d="M51.17 23.45a6.58 6.58 0 0 1 2-4.73 6.81 6.81 0 0 1 4.82-1.95 6.91 6.91 0 0 1 4.81 1.95 6.67 6.67 0 0 1 2 4.73 6.57 6.57 0 0 1-2 4.73A6.81 6.81 0 0 1 58 30.14h-6.82v-6.69Zm-3.4 0a6.58 6.58 0 0 1-2 4.73 6.81 6.81 0 0 1-4.8 1.96 6.91 6.91 0 0 1-4.83-1.96 6.67 6.67 0 0 1-2-4.73V6.7a6.58 6.58 0 0 1 2-4.73A6.81 6.81 0 0 1 40.96 0a6.91 6.91 0 0 1 4.82 1.96 6.67 6.67 0 0 1 1.99 4.73v16.77Z" fill="#2EB67D"/><path d="M40.96 50.25a6.91 6.91 0 0 1 4.82 1.95 6.67 6.67 0 0 1 1.99 4.73 6.57 6.57 0 0 1-2 4.73 6.81 6.81 0 0 1-4.8 1.96 6.91 6.91 0 0 1-4.83-1.96 6.68 6.68 0 0 1-1.99-4.73v-6.68h6.81Zm0-3.35a6.91 6.91 0 0 1-4.82-1.95 6.67 6.67 0 0 1-1.99-4.73 6.58 6.58 0 0 1 2-4.73 6.81 6.81 0 0 1 4.81-1.96h17.08a6.91 6.91 0 0 1 4.81 1.96 6.67 6.67 0 0 1 2 4.73 6.58 6.58 0 0 1-2 4.73 6.81 6.81 0 0 1-4.81 1.95H40.96Z" fill="#ECB22E"/></g><defs><clipPath id="a"><path fill="#fff" d="M0 0h65v63.82H0z"/></clipPath></defs></svg>