<svg width="65" height="63" fill="none" xmlns="http://www.w3.org/2000/svg"><g opacity=".78"><mask id="a" style="mask-type:alpha" maskUnits="userSpaceOnUse" x="0" y="0" width="65" height="63"><path d="M45.91 62.5a4.13 4.13 0 0 0 3.22-.12l13.33-6.25a4.01 4.01 0 0 0 1.67-1.46c.4-.63.62-1.35.62-2.1V10.2c0-.74-.22-1.47-.62-2.1a4.01 4.01 0 0 0-1.67-1.45L49.13.39a4.13 4.13 0 0 0-4.6.76L19 23.84 7.89 15.62a2.74 2.74 0 0 0-3.44.15L.88 18.93a2.58 2.58 0 0 0 0 3.88l9.64 8.57-9.64 8.57a2.58 2.58 0 0 0 0 3.89L4.45 47a2.73 2.73 0 0 0 3.44.15l11.12-8.22L44.53 61.6c.4.39.86.69 1.38.89Zm2.66-45.44L29.21 31.38 48.57 45.7V17.06Z" fill="#fff"/></mask><g mask="url(#a)"><path d="M62.5 6.65 49.15.39a4.13 4.13 0 0 0-4.6.76L.88 39.95a2.58 2.58 0 0 0 0 3.89L4.45 47a2.74 2.74 0 0 0 3.45.15L60.49 8.27c1.76-1.3 4.3-.07 4.3 2.08v-.15c0-.74-.22-1.47-.62-2.1a4.01 4.01 0 0 0-1.67-1.45Z" fill="#0065A9"/><path d="m62.5 56.12-13.35 6.25a4.13 4.13 0 0 1-4.6-.76L.88 22.81a2.58 2.58 0 0 1 0-3.88l3.57-3.16a2.74 2.74 0 0 1 3.45-.15l52.59 38.87c1.76 1.3 4.3.08 4.3-2.08v.15c0 .75-.22 1.47-.62 2.1-.4.63-.99 1.13-1.67 1.46Z" fill="#007ACC"/><path d="M49.11 62.38a4.13 4.13 0 0 1-4.6-.76c1.5 1.45 4.05.42 4.05-1.64V2.78C48.56.74 46-.3 44.5 1.17a4.07 4.07 0 0 1 4.6-.77l13.34 6.25c.69.32 1.27.83 1.67 1.46.4.63.62 1.35.62 2.1v42.38c0 1.51-.89 2.9-2.29 3.55l-13.34 6.25Z" fill="#1F9CF0"/><path d="M45.91 62.5a4.13 4.13 0 0 0 3.22-.12l13.33-6.25a4.01 4.01 0 0 0 1.67-1.46c.4-.63.62-1.36.62-2.1V10.2c0-.74-.22-1.47-.62-2.1a4.01 4.01 0 0 0-1.67-1.45L49.13.39a4.13 4.13 0 0 0-4.6.76L19 23.84 7.89 15.62a2.74 2.74 0 0 0-3.44.15L.88 18.93a2.58 2.58 0 0 0 0 3.88l9.64 8.57-9.64 8.57a2.59 2.59 0 0 0 0 3.89L4.45 47a2.73 2.73 0 0 0 3.44.15l11.12-8.22L44.53 61.6c.39.39.86.69 1.38.89Zm2.66-45.44L29.21 31.38 48.57 45.7V17.06Z" fill="url(#b)" fill-opacity=".25"/></g></g><defs><linearGradient id="b" x1="32.37" y1="0" x2="32.37" y2="62.76" gradientUnits="userSpaceOnUse"><stop stop-color="#fff"/><stop offset="1" stop-color="#fff" stop-opacity="0"/></linearGradient></defs></svg>