<svg width="193" height="42" fill="none" xmlns="http://www.w3.org/2000/svg"><g clip-path="url(#a)" fill="#fff" fill-opacity=".2"><path d="M192.95 18.88v-3.44h-4.21V10.1l-.14.04-3.96 1.23-.08.02v4.05h-6.25v-2.26c0-1.05.24-1.85.7-2.39.45-.53 1.1-.8 1.92-.8.6 0 1.21.15 1.83.43l.16.07V6.87l-.07-.03a7.06 7.06 0 0 0-2.34-.32 6.8 6.8 0 0 0-3.32.81 5.71 5.71 0 0 0-2.28 2.28c-.54.98-.8 2.1-.8 3.35v2.48h-2.94v3.44h2.93v14.48h4.21V18.88h6.25v9.2c0 3.79 1.77 5.7 5.25 5.7a8.5 8.5 0 0 0 3.09-.61l.05-.03v-3.47l-.17.11a2.9 2.9 0 0 1-.85.38c-.33.1-.61.14-.83.14-.81 0-1.42-.22-1.8-.66-.37-.45-.56-1.22-.56-2.3v-8.46h4.21ZM161.76 30.3a4.44 4.44 0 0 1-3.58-1.53c-.86-1.01-1.3-2.46-1.3-4.3 0-1.9.44-3.39 1.3-4.42a4.37 4.37 0 0 1 3.55-1.55c1.46 0 2.62.5 3.45 1.48.84.99 1.26 2.46 1.26 4.38 0 1.95-.4 3.44-1.18 4.44-.79 1-1.96 1.5-3.5 1.5Zm.19-15.3c-2.92 0-5.24.87-6.89 2.58-1.65 1.7-2.49 4.07-2.49 7.02 0 2.81.82 5.07 2.43 6.71 1.62 1.64 3.8 2.48 6.52 2.48 2.83 0 5.1-.88 6.75-2.61 1.65-1.73 2.49-4.07 2.49-6.96 0-2.84-.79-5.12-2.33-6.75-1.56-1.63-3.73-2.46-6.48-2.46Zm-16.17 0c-1.98 0-3.62.52-4.88 1.53a4.9 4.9 0 0 0-1.9 3.98c0 .84.14 1.59.41 2.22.28.64.7 1.2 1.26 1.67.56.46 1.42.95 2.56 1.45.96.4 1.68.74 2.13 1 .45.26.76.53.94.78.17.25.26.6.26 1.02 0 1.2-.89 1.79-2.72 1.79a8.6 8.6 0 0 1-4.66-1.64l-.18-.13v4.11l.07.03c.6.28 1.34.51 2.23.7.88.18 1.69.28 2.38.28 2.16 0 3.9-.52 5.16-1.54a5 5 0 0 0 1.92-4.07c0-1.2-.35-2.24-1.04-3.08-.68-.83-1.86-1.59-3.5-2.26a9 9 0 0 1-2.5-1.31c-.34-.33-.5-.8-.5-1.38 0-.52.2-.94.63-1.28a2.84 2.84 0 0 1 1.8-.51 7.26 7.26 0 0 1 4 1.2l.17.12v-3.9l-.07-.02a11.45 11.45 0 0 0-3.97-.75Zm-17.76 15.3a4.44 4.44 0 0 1-3.58-1.53c-.86-1.01-1.29-2.46-1.29-4.3 0-1.9.43-3.39 1.29-4.42a4.37 4.37 0 0 1 3.55-1.55c1.46 0 2.62.5 3.45 1.48.84.99 1.27 2.46 1.27 4.38 0 1.95-.4 3.44-1.2 4.44-.77 1-1.95 1.5-3.49 1.5Zm.19-15.3c-2.92 0-5.24.87-6.89 2.58-1.65 1.7-2.48 4.07-2.48 7.02 0 2.81.81 5.07 2.42 6.71 1.62 1.64 3.81 2.48 6.52 2.48 2.83 0 5.1-.88 6.75-2.61 1.65-1.73 2.49-4.07 2.49-6.96 0-2.84-.78-5.12-2.33-6.75S130.96 15 128.2 15Zm-15.77 3.54v-3.1h-4.16v17.92h4.16v-9.17c0-1.56.35-2.84 1.04-3.8a3.17 3.17 0 0 1 2.69-1.44 4.81 4.81 0 0 1 2.22.58l.18.13V15.4l-.07-.03a4.26 4.26 0 0 0-1.63-.25c-1.05 0-1.98.34-2.78 1a5.7 5.7 0 0 0-1.6 2.41h-.05Zm-11.61-3.53c-1.9 0-3.61.41-5.06 1.23a8.25 8.25 0 0 0-3.34 3.47 11.19 11.19 0 0 0-1.14 5.15c0 1.7.37 3.25 1.11 4.62a7.88 7.88 0 0 0 3.11 3.19 9.17 9.17 0 0 0 4.55 1.12c1.98 0 3.67-.4 5.02-1.2l.06-.02V28.7l-.18.13a7.8 7.8 0 0 1-2.03 1.08c-.74.26-1.41.39-2 .39a5.1 5.1 0 0 1-3.9-1.54c-.95-1.02-1.43-2.45-1.43-4.26 0-1.82.5-3.29 1.5-4.37a5.06 5.06 0 0 1 3.9-1.63c1.37 0 2.7.46 3.96 1.4l.18.12v-4.07l-.06-.03a6.8 6.8 0 0 0-1.92-.66c-.8-.17-1.59-.25-2.33-.25Zm-12.41.43h-4.16v17.92h4.16V15.44ZM86.38 7.8a2.49 2.49 0 0 0-2.51 2.46c0 .68.24 1.26.73 1.72.49.46 1.09.69 1.78.69.7 0 1.3-.23 1.8-.69.49-.46.74-1.04.74-1.72 0-.68-.25-1.26-.73-1.74a2.47 2.47 0 0 0-1.8-.72ZM76 14.1v19.25h4.25v-25h-5.88L66.9 26.91 59.65 8.35h-6.12v25h4V14.12h.13l7.66 19.25h3l7.54-19.24H76ZM19.57 19.83H0V0h19.57v19.83ZM41.19 19.83H21.6V0H41.2v19.83ZM19.57 41.73H0V21.9h19.57v19.83ZM41.19 41.73H21.6V21.9H41.2v19.83Z"/></g><defs><clipPath id="a"><path fill="#fff" d="M0 0h193v42H0z"/></clipPath></defs></svg>