<svg width="194" height="49" fill="none" xmlns="http://www.w3.org/2000/svg"><g clip-path="url(#a)" fill="#fff" fill-opacity=".2"><path d="m61.99 38.4 2.42-5.59a16.2 16.2 0 0 0 9.52 2.95c2.54 0 4.14-.97 4.14-2.44-.04-4.12-15.19-.9-15.3-11.23-.04-5.24 4.64-9.28 11.28-9.28 3.94 0 7.88.97 10.7 3.19l-2.27 5.7c-2.58-1.63-5.78-2.79-8.82-2.79-2.07 0-3.44.97-3.44 2.21.04 4.04 15.3 1.83 15.46 11.7 0 5.35-4.57 9.12-11.12 9.12-4.8 0-9.22-1.13-12.57-3.54Zm92.86-7.6 6.67 3.68a14.56 14.56 0 0 1-12.76 7.46 14.6 14.6 0 0 1-14.64-14.56 14.6 14.6 0 0 1 14.64-14.57c5.46 0 10.27 3.03 12.76 7.46l-6.67 3.69a7.03 7.03 0 0 0-6.1-3.54 6.96 6.96 0 1 0 0 13.9 7.03 7.03 0 0 0 6.1-3.53ZM89.04.73h8.35v40.65h-8.35V.74Zm75.76 0h8.36v23.88l9.44-11.22h10.23l-11.67 13.5 12.6 14.5h-10.69l-9.91-12.2v12.2h-8.36V.73Zm-42.58 30.13V24a7.71 7.71 0 0 0-6.52-3.58 6.96 6.96 0 1 0 0 13.9c2.8 0 5.3-1.47 6.52-3.45Zm0-17.47h8.35v27.95h-8.35v-3.3c-1.37 2.3-4.77 3.89-8.32 3.89-7.34 0-13.11-6.53-13.11-14.6 0-8.08 5.77-14.53 13.11-14.53 3.55 0 6.95 1.6 8.32 3.89v-3.3ZM10.34 30.83a5.13 5.13 0 0 1-7.12 4.74 5.15 5.15 0 0 1-3.18-4.74c0-2.83 2.3-5.12 5.15-5.12h5.15v5.12Zm2.58 0c0-2.83 2.3-5.12 5.15-5.12 2.85 0 5.16 2.29 5.16 5.12v12.81a5.13 5.13 0 0 1-7.13 4.74 5.15 5.15 0 0 1-3.18-4.74v-12.8ZM18.07 10.25a5.17 5.17 0 0 1-5.15-5.12c0-2.84 2.3-5.13 5.15-5.13 2.85 0 5.16 2.3 5.16 5.13v5.12h-5.16Zm0 2.6a5.13 5.13 0 1 1 0 10.25H5.15A5.17 5.17 0 0 1 0 17.98c0-2.84 2.3-5.13 5.15-5.13h12.92ZM38.72 17.98c0-2.84 2.3-5.13 5.15-5.13a5.13 5.13 0 1 1 0 10.25h-5.15v-5.12Zm-2.57 0a5.13 5.13 0 0 1-7.13 4.73 5.15 5.15 0 0 1-3.18-4.73V5.13C25.84 2.29 28.14 0 31 0c2.85 0 5.16 2.3 5.16 5.13v12.85ZM31 38.52a5.13 5.13 0 1 1-3.65 8.75 5.12 5.12 0 0 1-1.5-3.63v-5.12h5.14Zm0-2.56a5.17 5.17 0 0 1-4.77-3.17A5.13 5.13 0 0 1 31 25.7h12.92a5.13 5.13 0 1 1 0 10.26H31Z"/></g><defs><clipPath id="a"><path fill="#fff" d="M0 0h194v49H0z"/></clipPath></defs></svg>