<svg width="194" height="44" fill="none" xmlns="http://www.w3.org/2000/svg"><g clip-path="url(#a)" fill="#fff" fill-opacity=".2"><path d="M112.52 17.2h-7.64v.8c2.39 0 2.77.5 2.77 3.51v5.43c0 3-.38 3.55-2.77 3.55-1.83-.25-3.07-1.23-4.78-3.09l-1.96-2.12c2.64-.46 4.05-2.11 4.05-3.98 0-2.33-2-4.1-5.76-4.1h-7.5v.8c2.38 0 2.77.5 2.77 3.51v5.43c0 3-.39 3.55-2.78 3.55v.8h8.5v-.8c-2.4 0-2.78-.55-2.78-3.55V25.4h.73l4.73 5.89h12.42c6.1 0 8.74-3.22 8.74-7.08 0-3.85-2.64-7.02-8.74-7.02Zm-17.88 6.9v-5.63h1.75c1.92 0 2.77 1.3 2.77 2.83 0 1.49-.85 2.8-2.77 2.8h-1.75Zm18 5.88h-.3c-1.53 0-1.74-.38-1.74-2.32v-9.2h2.04c4.44 0 5.25 3.22 5.25 5.72 0 2.59-.8 5.8-5.25 5.8Zm-47.48-4.31 2.95-8.64c.85-2.5.46-3.22-2.27-3.22v-.85h8.02v.85c-2.68 0-3.32.63-4.39 3.72l-4.86 14.49h-.56L59.7 18.76l-4.44 13.26h-.55l-4.74-14.49c-1.02-3.09-1.7-3.72-4.18-3.72v-.85h9.47v.85c-2.51 0-3.2.6-2.3 3.22l2.86 8.63 4.3-12.7h.82l4.22 12.7Zm14.5 6.18c-4.69 0-8.53-3.43-8.53-7.63 0-4.14 3.84-7.58 8.54-7.58 4.69 0 8.53 3.44 8.53 7.58 0 4.2-3.84 7.63-8.53 7.63Zm0-13.9c-3.92 0-5.28 3.52-5.28 6.27 0 2.8 1.36 6.27 5.29 6.27 3.96 0 5.33-3.47 5.33-6.27 0-2.75-1.37-6.26-5.33-6.26ZM131.8 30.45v.85h-9.77v-.85c2.86 0 3.37-.72 3.37-4.96v-6.77c0-4.23-.51-4.91-3.37-4.91v-.85h8.83c4.4 0 6.83 2.25 6.83 5.25 0 2.92-2.44 5.21-6.83 5.21h-2.43v2.07c0 4.24.51 4.96 3.37 4.96Zm-.94-15.96h-2.43v7.36h2.43c2.39 0 3.5-1.65 3.5-3.64 0-2.03-1.11-3.72-3.5-3.72Zm36.13 12.83-.2.76c-.4 1.4-.86 1.9-3.9 1.9h-.59c-2.22 0-2.6-.5-2.6-3.51v-1.95c3.33 0 3.58.3 3.58 2.5h.81v-6.31h-.8c0 2.2-.26 2.5-3.6 2.5v-4.74h2.35c3.03 0 3.5.5 3.89 1.9l.21.8h.68l-.3-3.97h-12.54v.8c2.4 0 2.78.5 2.78 3.51v5.42c0 2.75-.33 3.45-2.21 3.55-1.8-.27-3.02-1.24-4.7-3.08l-1.97-2.12c2.65-.46 4.06-2.11 4.06-3.98 0-2.33-2.01-4.1-5.76-4.1h-7.51v.8c2.39 0 2.77.5 2.77 3.51v5.42c0 3.01-.38 3.56-2.77 3.56v.8h8.49v-.8c-2.4 0-2.78-.55-2.78-3.56v-1.52h.73l4.73 5.89h17.54l.26-3.98H167Zm-22.6-3.22v-5.63h1.74c1.92 0 2.78 1.3 2.78 2.83 0 1.49-.86 2.8-2.78 2.8h-1.75Zm31.27 7.75c-1.71 0-3.2-.9-3.84-1.44-.22.2-.6.84-.69 1.44h-.8V26h.85c.34 2.8 2.3 4.45 4.82 4.45 1.36 0 2.47-.76 2.47-2.03 0-1.1-.98-1.95-2.73-2.75l-2.43-1.15c-1.7-.8-2.99-2.2-2.99-4.06 0-2.04 1.92-3.77 4.57-3.77 1.4 0 2.6.5 3.33 1.1.2-.17.42-.64.55-1.14h.81v5h-.9c-.3-2-1.4-3.65-3.66-3.65-1.2 0-2.3.68-2.3 1.74 0 1.1.89 1.7 2.94 2.62l2.34 1.15c2.05.97 2.86 2.54 2.86 3.8 0 2.67-2.35 4.54-5.2 4.54Zm13.13 0c-1.7 0-3.2-.9-3.83-1.44-.22.2-.6.84-.69 1.44h-.8V26h.84c.35 2.8 2.3 4.45 4.83 4.45 1.36 0 2.47-.76 2.47-2.03 0-1.1-.98-1.95-2.73-2.75l-2.43-1.15c-1.7-.8-2.99-2.2-2.99-4.06 0-2.04 1.92-3.77 4.57-3.77 1.4 0 2.6.5 3.32 1.1.22-.17.43-.64.56-1.14h.81v5h-.9c-.3-2-1.4-3.65-3.66-3.65-1.2 0-2.3.68-2.3 1.74 0 1.1.89 1.7 2.93 2.62l2.35 1.15c2.05.97 2.86 2.54 2.86 3.8 0 2.67-2.35 4.54-5.2 4.54ZM3.13 21.84c0 7.42 4.34 13.83 10.64 16.87l-9-24.5c-1.09 2.4-1.64 5-1.64 7.63Zm31.62-.94c0-2.32-.83-3.92-1.55-5.17-.96-1.54-1.86-2.85-1.86-4.4 0-1.72 1.32-3.32 3.17-3.32l.25.01A18.89 18.89 0 0 0 22 3.11a18.9 18.9 0 0 0-15.78 8.44l1.22.02c1.97 0 5.03-.23 5.03-.23 1.02-.06 1.14 1.42.12 1.54 0 0-1.02.12-2.16.18l6.88 20.3 4.13-12.3-2.94-8c-1.02-.06-1.98-.18-1.98-.18-1.02-.06-.9-1.6.12-1.54 0 0 3.11.23 4.97.23 1.97 0 5.03-.23 5.03-.23 1.02-.06 1.14 1.42.12 1.54 0 0-1.02.12-2.16.18l6.82 20.14 1.89-6.24c.81-2.6 1.43-4.46 1.43-6.06Zm-12.41 2.58-5.66 16.34a19 19 0 0 0 11.6-.3l-.14-.26-5.8-15.78Zm16.24-10.63c.08.6.12 1.24.12 1.93 0 1.9-.36 4.04-1.43 6.71L31.5 38.04a18.7 18.7 0 0 0 7.08-25.19ZM22 0C9.87 0 0 9.8 0 21.84A21.95 21.95 0 0 0 22 43.7c12.14 0 22.02-9.8 22.02-21.85A21.95 21.95 0 0 0 22 0Zm0 42.69c-11.58 0-21-9.35-21-20.85C1 10.35 10.43 1 22 1s21 9.35 21 20.84c0 11.5-9.42 20.85-21 20.85Z"/></g><defs><clipPath id="a"><path fill="#fff" d="M0 0h194v44H0z"/></clipPath></defs></svg>